<?xml version="1.0" encoding="utf-8"?><!-- Uploaded to: SVG Repo, www.svgrepo.com, Generator: SVG Repo Mixer Tools -->
<svg fill="#000000" width="800px" height="800px" viewBox="0 0 24 24" id="hamburger" data-name="Flat Color" xmlns="http://www.w3.org/2000/svg" class="icon flat-color"><path id="primary" d="M20,13v2a5,5,0,0,1-5,5H9a5,5,0,0,1-5-5V13a1,1,0,0,1,1-1H19A1,1,0,0,1,20,13ZM5,10H19a1,1,0,0,0,1-1,5,5,0,0,0-5-5H9A5,5,0,0,0,4,9,1,1,0,0,0,5,10Z" style="fill: rgb(0, 0, 0);"></path><path id="secondary" d="M19,8H5a3,3,0,0,0,0,6H19a3,3,0,0,0,0-6Z" style="fill: rgb(44, 169, 188);"></path></svg>