<?xml version="1.0" ?><!-- Uploaded to: SVG Repo, www.svgrepo.com, Generator: SVG Repo Mixer Tools -->
<svg width="800px" height="800px" viewBox="0 0 100 100" data-name="Layer 1" id="Layer_1" xmlns="http://www.w3.org/2000/svg"><defs><style>
      .cls-1 {
        fill: none;
        stroke: #231f20;
        stroke-miterlimit: 10;
        stroke-width: 2px;
      }
    </style></defs><path class="cls-1" d="M71.81,36.69c.65,.66,1.06,1.56,1.06,2.56,0,1.99-1.62,3.61-3.61,3.61H32.34c-3.99,0-7.22-3.23-7.22-7.22,0-1.99,.81-3.8,2.11-5.11,1.31-1.31,3.11-2.12,5.11-2.12h36.92c1,0,1.9,.4,2.55,1.06,.65,.66,1.06,1.56,1.06,2.56,0,1.99-1.62,3.61-3.61,3.61,1,0,1.9,.4,2.55,1.05Z"/><line class="cls-1" x1="69.26" x2="50" y1="35.64" y2="35.64"/><path class="cls-1" d="M73.84,65.59c.65,.66,1.06,1.56,1.06,2.56,0,1.99-1.62,3.61-3.61,3.61H34.37c-3.99,0-7.22-3.23-7.22-7.22,0-1.99,.81-3.8,2.11-5.11,1.31-1.31,3.11-2.12,5.11-2.12h36.92c1,0,1.9,.4,2.55,1.06,.65,.66,1.06,1.56,1.06,2.56,0,1.99-1.62,3.61-3.61,3.61,1,0,1.9,.4,2.55,1.05Z"/><line class="cls-1" x1="71.29" x2="52.03" y1="64.54" y2="64.54"/><path class="cls-1" d="M27.23,49.03c-.68-.66-1.11-1.56-1.11-2.56,0-1.99,1.69-3.61,3.76-3.61h38.49c4.16,0,7.53,3.23,7.53,7.22,0,1.99-.84,3.8-2.2,5.11-1.37,1.31-3.24,2.12-5.33,2.12H29.89c-1.04,0-1.98-.4-2.66-1.06-.68-.66-1.11-1.56-1.11-2.56,0-1.99,1.69-3.61,3.76-3.61-1.04,0-1.98-.4-2.66-1.05Z"/><line class="cls-1" x1="29.89" x2="49.97" y1="50.08" y2="50.08"/></svg>