<?xml version="1.0" ?>
<!DOCTYPE svg  PUBLIC '-//W3C//DTD SVG 1.1//EN'  'http://www.w3.org/Graphics/SVG/1.1/DTD/svg11.dtd'>
<!-- Uploaded to: SVG Repo, www.svgrepo.com, Generator: SVG Repo Mixer Tools -->
<svg width="800px" height="800px" viewBox="0 0 32 32" enable-background="new 0 0 32 32" version="1.1" xml:space="preserve" xmlns="http://www.w3.org/2000/svg" xmlns:xlink="http://www.w3.org/1999/xlink">
<g id="Packaging_Delivery31"/>
<g id="Packaging_Delivery30"/>
<g id="Packaging_Delivery29"/>
<g id="Packaging_Delivery28"/>
<g id="Packaging_Delivery27"/>
<g id="Packaging_Delivery26"/>
<g id="Packaging_Delivery25"/>
<g id="Packaging_Delivery24"/>
<g id="Packaging_Delivery23"/>
<g id="Packaging_Delivery22"/>
<g id="Packaging_Delivery21"/>
<g id="Packaging_Delivery20"/>
<g id="Packaging_Delivery19"/>
<g id="Packaging_Delivery18"/>
<g id="Packaging_Delivery17"/>
<g id="Packaging_Delivery16"/>
<g id="Packaging_Delivery15"/>
<g id="Packaging_Delivery14"/>
<g id="Packaging_Delivery13"/>
<g id="Packaging_Delivery12"/>
<g id="Packaging_Delivery11"/>
<g id="Packaging_Delivery10">
<g>
<path d="M31,4v22c0,0.55-0.45,1-1,1H2c-0.55,0-1-0.45-1-1V4c0-1.65,1.35-3,3-3h24C29.65,1,31,2.35,31,4z" fill="#48B1DD"/>
</g>
<g>
<path d="M21,1v11c0,0.38-0.21,0.73-0.55,0.89C20.31,12.97,20.15,13,20,13c-0.21,0-0.42-0.07-0.6-0.2L16,10.25    l-3.4,2.55c-0.3,0.23-0.71,0.26-1.05,0.09C11.21,12.73,11,12.38,11,12V1H21z" fill="#96CEE5"/>
</g>
<g>
<path d="M31,25v3c0,1.65-1.35,3-3,3H4c-1.65,0-3-1.35-3-3v-3H31z" fill="#4391B2"/>
</g>
</g>
<g id="Packaging_Delivery09"/>
<g id="Packaging_Delivery08"/>
<g id="Packaging_Delivery07"/>
<g id="Packaging_Delivery06"/>
<g id="Packaging_Delivery05"/>
<g id="Packaging_Delivery04"/>
<g id="Packaging_Delivery03"/>
<g id="Packaging_Delivery02"/>
<g id="Packaging_Delivery01"/>
</svg>